<svg width="320" height="117" viewBox="0 0 320 117" fill="none" xmlns="http://www.w3.org/2000/svg">
	<path d="M320 116.104C320 116.164 248.361 116.208 160.009 116.208C71.6573 116.208 0 116.144 0 116.104C0 116.064 71.6244 116 160.009 116C248.394 116 320 116.028 320 116.104Z" fill="#263238"/>
	<path d="M286.932 94.8C286.988 94.8574 287.037 94.9204 287.08 94.988L287.48 95.548C287.816 96.036 288.28 96.748 288.84 97.664C291.734 102.387 294.044 107.444 295.72 112.724C296.04 113.74 296.28 114.564 296.428 115.124C296.496 115.392 296.552 115.612 296.6 115.784C296.625 115.86 296.64 115.94 296.644 116.02C296.607 115.949 296.577 115.874 296.556 115.796C296.504 115.624 296.436 115.396 296.352 115.144C296.18 114.576 295.916 113.76 295.58 112.744C293.829 107.505 291.527 102.466 288.712 97.712C288.176 96.796 287.728 96.064 287.412 95.564L287.056 94.9801C287.007 94.9257 286.966 94.8651 286.932 94.8Z" fill="#263238"/>
	<path d="M293.46 82.9041C293.47 83.0172 293.47 83.1309 293.46 83.244C293.46 83.484 293.46 83.8081 293.428 84.2161C293.396 84.6241 293.388 85.1521 293.384 85.7521C293.38 86.3521 293.352 87.032 293.364 87.784C293.364 89.292 293.408 91.0881 293.524 93.0801C293.64 95.0721 293.856 97.2521 294.168 99.5281C294.48 101.804 294.888 103.964 295.304 105.928C295.72 107.892 296.176 109.616 296.592 111.068C296.784 111.796 296.992 112.444 297.164 113.02C297.336 113.596 297.492 114.084 297.624 114.484L297.92 115.412C297.959 115.519 297.989 115.628 298.008 115.74C298.008 115.74 297.96 115.632 297.88 115.424C297.8 115.216 297.688 114.896 297.548 114.512C297.408 114.128 297.232 113.628 297.056 113.056C296.88 112.484 296.656 111.836 296.448 111.108C296.016 109.66 295.56 107.908 295.12 105.972C294.68 104.036 294.284 101.86 293.964 99.572C293.644 97.284 293.452 95.0961 293.332 93.1041C293.212 91.1121 293.192 89.308 293.216 87.796C293.216 87.04 293.248 86.36 293.268 85.76C293.288 85.16 293.316 84.644 293.348 84.224C293.38 83.804 293.4 83.4921 293.416 83.2521C293.421 83.135 293.435 83.0186 293.46 82.9041Z" fill="#263238"/>
	<path d="M299.292 98.248C299.272 98.4833 299.23 98.7163 299.168 98.944C299.072 99.384 298.948 100.028 298.816 100.824C298.117 104.985 298.128 109.235 298.848 113.392C298.988 114.192 299.112 114.832 299.212 115.272C299.274 115.5 299.317 115.733 299.34 115.968C299.254 115.748 299.185 115.522 299.132 115.292C299.012 114.856 298.86 114.216 298.704 113.42C297.899 109.253 297.888 104.971 298.672 100.8C298.824 100 298.968 99.36 299.092 98.924C299.142 98.6942 299.209 98.4682 299.292 98.248Z" fill="#263238"/>
	<path d="M293.92 115.884C293.884 115.884 293.804 115.368 293.596 114.54C293.328 113.466 292.958 112.42 292.492 111.416C292.023 110.413 291.462 109.456 290.816 108.556C290.316 107.864 289.968 107.464 290.016 107.44C290.064 107.416 290.124 107.524 290.288 107.696C290.522 107.942 290.744 108.2 290.952 108.468C292.336 110.24 293.294 112.307 293.752 114.508C293.823 114.84 293.876 115.175 293.912 115.512C293.932 115.635 293.935 115.76 293.92 115.884Z" fill="#263238"/>
	<path d="M104.6 100.844C104.463 101.027 104.312 101.2 104.148 101.36C103.992 101.52 103.808 101.72 103.604 101.956C103.4 102.192 103.152 102.456 102.908 102.756C102.396 103.36 101.828 104.108 101.232 104.968C100.598 105.907 100.014 106.879 99.4841 107.88C98.9634 108.889 98.4987 109.925 98.0921 110.984C97.7241 111.96 97.4361 112.856 97.2281 113.62C97.1161 114 97.0401 114.352 96.9641 114.656C96.8881 114.96 96.8281 115.224 96.7841 115.456C96.7461 115.683 96.6913 115.906 96.6201 116.124C96.6285 115.894 96.6566 115.665 96.7041 115.44C96.7361 115.22 96.7801 114.952 96.8481 114.64C96.9161 114.328 96.9801 113.976 97.0881 113.592C97.3143 112.689 97.5894 111.798 97.9121 110.924C98.7023 108.778 99.7657 106.743 101.076 104.868C101.608 104.104 102.183 103.369 102.796 102.668C103.048 102.36 103.304 102.104 103.516 101.868C103.728 101.632 103.916 101.444 104.088 101.292C104.246 101.129 104.417 100.979 104.6 100.844Z" fill="#263238"/>
	<path d="M96.6199 95.448C96.6091 95.5179 96.5903 95.5864 96.5639 95.652L96.3719 96.228C96.2839 96.476 96.1799 96.78 96.0719 97.14C95.9639 97.5 95.8239 97.9 95.7039 98.34C95.4399 99.244 95.1759 100.34 94.9319 101.54C94.6879 102.74 94.4959 104.112 94.3679 105.54C94.2399 106.968 94.2199 108.34 94.2399 109.576C94.2599 110.812 94.3439 111.936 94.4519 112.872C94.4919 113.34 94.5599 113.76 94.6079 114.128C94.6559 114.496 94.7039 114.82 94.7479 115.076C94.7919 115.332 94.8159 115.516 94.8399 115.676C94.8488 115.746 94.8488 115.818 94.8399 115.888C94.8095 115.824 94.7892 115.755 94.7799 115.684C94.7479 115.528 94.7039 115.332 94.6519 115.092C94.5999 114.852 94.5319 114.52 94.4759 114.148C94.4199 113.776 94.3399 113.348 94.2879 112.888C94.1639 111.952 94.0719 110.832 94.0319 109.584C93.9957 108.23 94.0331 106.874 94.1439 105.524C94.2664 104.175 94.4614 102.833 94.7279 101.504C94.9407 100.425 95.2077 99.3566 95.5279 98.304C95.6559 97.848 95.8039 97.448 95.9279 97.104C96.0519 96.76 96.1639 96.448 96.2639 96.204L96.4919 95.644C96.5238 95.5722 96.567 95.506 96.6199 95.448Z" fill="#263238"/>
	<path d="M87.224 107.928C87.3504 107.976 87.4711 108.038 87.584 108.112C87.9003 108.296 88.2048 108.499 88.496 108.72C90.4431 110.189 91.9003 112.212 92.676 114.524C92.7931 114.87 92.8893 115.222 92.964 115.58C93.0005 115.71 93.0207 115.845 93.024 115.98C92.988 115.98 92.86 115.432 92.536 114.572C91.6958 112.324 90.2674 110.343 88.4 108.836C87.692 108.26 87.2 107.96 87.224 107.928Z" fill="#263238"/>
	<path d="M132.8 108.34C132.852 108.312 133.72 110.004 134.744 112.116C135.768 114.228 136.548 115.956 136.496 115.98C136.444 116.004 135.576 114.316 134.556 112.204C133.906 110.946 133.32 109.657 132.8 108.34Z" fill="#263238"/>
	<path d="M136.76 103.164C136.78 103.334 136.78 103.506 136.76 103.676C136.76 104 136.732 104.476 136.72 105.056C136.689 106.575 136.736 108.094 136.86 109.608C136.988 111.122 137.195 112.628 137.48 114.12C137.588 114.696 137.68 115.16 137.748 115.48C137.793 115.643 137.82 115.811 137.828 115.98C137.76 115.824 137.706 115.662 137.668 115.496C137.576 115.184 137.464 114.724 137.336 114.152C136.68 111.166 136.423 108.106 136.572 105.052C136.604 104.468 136.64 103.996 136.68 103.668C136.691 103.498 136.718 103.329 136.76 103.164Z" fill="#263238"/>
	<path d="M140.076 107.936C139.979 108.331 139.859 108.719 139.716 109.1C139.422 110.031 139.194 110.981 139.036 111.944C138.884 112.908 138.8 113.881 138.784 114.856C138.801 115.263 138.793 115.67 138.76 116.076C138.674 115.682 138.633 115.279 138.636 114.876C138.61 113.889 138.675 112.902 138.832 111.928C138.988 110.953 139.237 109.995 139.576 109.068C139.698 108.673 139.866 108.293 140.076 107.936Z" fill="#263238"/>
	<path d="M287.624 34.956C289.488 34.764 290.744 34.456 291.972 34.396C293.484 34.324 294.1 34.188 294.068 33.904C294.024 33.528 294.068 33.672 291.292 33.416C291.292 33.416 295.244 33.744 294.444 33.016C294.092 32.688 290.812 32.38 290.812 32.38C293.424 32.868 294.484 32.64 294.536 32.24C294.616 31.664 290.628 31.32 290.628 31.32C290.628 31.32 293.664 31.64 294.228 31.532C294.792 31.424 294.252 30.996 293.72 30.768C293.12 30.508 289.424 29.508 288.372 29.168C288.28 29.1495 288.193 29.1113 288.117 29.056C288.041 29.0006 287.977 28.9294 287.931 28.8474C287.886 28.7653 287.858 28.6742 287.85 28.5804C287.843 28.4866 287.856 28.3923 287.888 28.304C288.664 26.896 288.516 25.384 288.288 24.996C288.226 24.912 288.139 24.8499 288.04 24.8186C287.94 24.7873 287.834 24.7884 287.735 24.8218C287.636 24.8552 287.55 24.9191 287.49 25.0043C287.43 25.0896 287.399 25.1917 287.4 25.296C287.305 25.8316 287.135 26.3512 286.896 26.84C286.723 27.2388 286.484 27.6053 286.188 27.924C285.84 28.296 285.536 28.592 285.268 28.84L257.536 27.64L255.884 35.292L287.624 34.956Z" fill="#B78876"/>
	<path d="M289.736 33.2481C289.736 33.3201 290.572 33.4321 291.624 33.5041C292.676 33.5761 293.528 33.5761 293.528 33.5041C293.528 33.4321 292.684 33.3201 291.64 33.2481C290.596 33.1761 289.744 33.2001 289.736 33.2481Z" fill="#AA6550"/>
	<path d="M289.724 32.1759C289.724 32.2479 290.608 32.4199 291.724 32.5759C292.84 32.7319 293.744 32.7798 293.752 32.7118C293.76 32.6438 292.868 32.4679 291.752 32.3119C290.636 32.1559 289.732 32.1079 289.724 32.1759Z" fill="#AA6550"/>
	<path d="M289.716 31.0639C289.716 31.1319 290.548 31.3079 291.6 31.4639C292.652 31.6199 293.508 31.6759 293.516 31.6079C293.524 31.5399 292.684 31.3599 291.632 31.2079C290.58 31.0559 289.724 30.9959 289.716 31.0639Z" fill="#AA6550"/>
	<path d="M192.216 27.0398C190.344 27.1198 189.072 27.3478 187.844 27.3318C186.328 27.3318 185.704 27.4158 185.72 27.6958C185.74 28.0758 185.72 27.9318 188.46 28.3558C188.46 28.3558 184.536 27.7838 185.288 28.5758C185.62 28.9278 188.888 29.4318 188.888 29.4318C186.308 28.7878 185.236 28.9518 185.156 29.3438C185.044 29.9158 189.004 30.5038 189.004 30.5038C189.004 30.5038 185.992 29.9958 185.44 30.0718C184.888 30.1478 185.384 30.6078 185.9 30.8718C186.484 31.1678 190.112 32.3918 191.14 32.7998C191.231 32.8235 191.316 32.8669 191.389 32.9267C191.461 32.9866 191.52 33.0616 191.561 33.1465C191.602 33.2314 191.623 33.3242 191.625 33.4184C191.626 33.5125 191.607 33.6058 191.568 33.6918C190.712 35.0518 190.768 36.5678 190.976 36.9718C191.033 37.0592 191.116 37.1264 191.214 37.1634C191.311 37.2005 191.418 37.2056 191.519 37.178C191.619 37.1504 191.709 37.0915 191.774 37.0099C191.838 36.9282 191.876 36.828 191.88 36.7238C192.008 36.1948 192.209 35.6861 192.476 35.2118C192.675 34.8241 192.937 34.4725 193.252 34.1718C193.616 33.8278 193.94 33.5478 194.224 33.3158L223.424 34.6798L223.92 26.3518L192.216 27.0398Z" fill="#B78876"/>
	<path d="M281.6 115.9C283.304 115.764 279.364 114.232 277.464 113.796C275.172 113.272 273.32 112.64 273.32 112.64L273.492 103.588L266.44 102.724L266.016 114.988C266.021 115.232 266.113 115.467 266.276 115.649C266.439 115.831 266.662 115.948 266.904 115.98L281.6 115.9Z" fill="#B78876"/>
	<path d="M178.656 101.896C178.42 102.368 172.532 107.668 172.532 107.668C172.532 107.668 171.2 115.372 172.376 115.844H179.912C180.192 114.812 177.476 109.552 177.476 109.552L182.188 105.432L178.656 101.896Z" fill="#B78876"/>
	<path d="M231.816 37.2C231.816 37.432 233.04 54.74 233.04 54.74L250.02 55.356L250.732 37.2H231.816Z" fill="#B78876"/>
	<path d="M259.22 27.6998L254.42 26.2078C252.343 25.5647 250.214 25.1029 248.056 24.8278L246.384 24.6158L238.74 24.1838C238.304 24.1838 234.884 23.6878 231.744 24.2678C224.872 25.5358 221.444 26.0638 221.444 26.0638L221.796 35.6638L230.132 35.8118C230.728 38.4878 231.552 49.4358 231.552 49.4358L250.752 50.4078L251.372 40.8758C251.555 40.6811 251.714 40.4664 251.848 40.2358C252.242 39.5368 252.458 38.7515 252.477 37.9493C252.496 37.1471 252.317 36.3526 251.956 35.6358L257.868 35.9678L259.22 27.6998Z" fill="#5F60A9"/>
	<path d="M230.832 41.2319L251.3 41.6839L251.148 44.0079L231.04 43.4679L230.832 41.2319Z" fill="#FAFAFA"/>
	<g opacity="0.2">
		<path opacity="0.2" d="M231.04 43.4639L231.548 49.4319L250.732 50.4039L251.148 44.0039L231.04 43.4639Z" fill="#FAFAFA"/>
	</g>
	<g opacity="0.2">
		<path opacity="0.2" d="M241.652 37.8401C241.76 37.9161 241.548 38.4921 240.852 39.1761C240.429 39.5739 239.937 39.8923 239.4 40.1161C238.723 40.3981 237.988 40.5133 237.256 40.4521C236.527 40.3837 235.823 40.1468 235.2 39.7601C234.709 39.457 234.272 39.0729 233.908 38.6241C233.3 37.8561 233.152 37.2641 233.268 37.2001C233.384 37.1361 233.768 37.5561 234.436 38.1081C235.254 38.8213 236.264 39.2765 237.34 39.4161C238.419 39.4769 239.488 39.1879 240.388 38.5921C241.116 38.1401 241.532 37.7441 241.652 37.8401Z" fill="black"/>
	</g>
	<path d="M254.116 0.463929C253.318 0.290756 252.486 0.360939 251.728 0.665412C250.97 0.969886 250.321 1.49465 249.864 2.17193C249.354 2.9717 249.129 3.92015 249.224 4.86393C248.693 4.44843 248.109 4.10418 247.488 3.83993C246.313 3.36769 245.077 3.06207 243.816 2.93193C242.548 2.77193 241.22 2.70393 240.024 3.15993C238.024 3.92793 234.736 6.41593 236.08 11.5159L246.24 20.1119C246.324 20.2597 246.459 20.3715 246.62 20.426C246.781 20.4806 246.956 20.4742 247.112 20.4079C247.421 20.2638 247.684 20.0367 247.872 19.7519C249.504 17.661 250.641 15.2284 251.2 12.6359C251.572 10.9239 251.66 9.03593 251.076 7.43593C251.949 7.87515 252.943 8.00761 253.9 7.81193C254.768 7.60797 255.542 7.12021 256.101 6.426C256.66 5.7318 256.97 4.87092 256.984 3.97993C256.942 3.16502 256.642 2.38473 256.126 1.75242C255.61 1.12012 254.906 0.66876 254.116 0.463929Z" fill="#263238"/>
	<path d="M241.2 29.9598C242.294 30.1456 243.416 29.8911 244.322 29.2517C245.228 28.6123 245.845 27.6402 246.036 26.5478L249.096 9.17182C249.154 8.83382 249.083 8.48631 248.897 8.19812C248.712 7.90994 248.424 7.70211 248.092 7.61582L241.532 5.90382C240.997 5.76399 240.438 5.73398 239.891 5.8156C239.343 5.89723 238.818 6.0888 238.346 6.37879C237.874 6.66877 237.466 7.05118 237.146 7.503C236.826 7.95481 236.601 8.46669 236.484 9.00783C235.936 11.5438 235.364 14.6638 235.38 16.6078C235.408 20.5438 238.28 21.4758 238.28 21.4758L237.748 25.2198C237.591 26.3042 237.864 27.4071 238.509 28.2929C239.154 29.1786 240.12 29.7769 241.2 29.9598Z" fill="#B78876"/>
	<path d="M236.844 11.464C236.824 11.5921 236.855 11.7229 236.93 11.8289C237.004 11.9348 237.117 12.0077 237.244 12.032C237.306 12.0467 237.371 12.0488 237.434 12.0381C237.496 12.0275 237.556 12.0043 237.61 11.97C237.664 11.9356 237.71 11.8909 237.746 11.8383C237.782 11.7858 237.808 11.7265 237.82 11.664C237.841 11.5358 237.811 11.4045 237.736 11.2983C237.662 11.1921 237.548 11.1195 237.42 11.096C237.358 11.0814 237.294 11.0793 237.231 11.09C237.168 11.1006 237.108 11.1238 237.054 11.1581C237.001 11.1924 236.954 11.2372 236.918 11.2898C236.882 11.3423 236.857 11.4016 236.844 11.464Z" fill="#263238"/>
	<path d="M236.92 10.74C236.972 10.812 237.388 10.596 237.916 10.676C238.444 10.756 238.796 11.076 238.864 11.024C238.932 10.972 238.864 10.876 238.7 10.728C238.495 10.5335 238.235 10.4077 237.956 10.368C237.682 10.3262 237.402 10.3724 237.156 10.5C236.968 10.6 236.896 10.708 236.92 10.74Z" fill="#263238"/>
	<path d="M242.048 12.1959C242.027 12.3246 242.057 12.4564 242.132 12.5632C242.206 12.6701 242.32 12.7435 242.448 12.7679C242.51 12.782 242.574 12.7837 242.637 12.7728C242.7 12.7618 242.759 12.7386 242.813 12.7044C242.867 12.6701 242.913 12.6256 242.949 12.5733C242.985 12.521 243.011 12.4621 243.024 12.3999C243.044 12.2714 243.014 12.14 242.939 12.0334C242.865 11.9268 242.752 11.8532 242.624 11.8279C242.562 11.8138 242.498 11.8121 242.435 11.823C242.373 11.8339 242.313 11.8572 242.259 11.8914C242.206 11.9257 242.159 11.9702 242.123 12.0225C242.087 12.0747 242.061 12.1337 242.048 12.1959Z" fill="#263238"/>
	<path d="M242.12 11.6279C242.172 11.7039 242.584 11.4839 243.116 11.5639C243.648 11.6439 243.996 11.9639 244.06 11.9119C244.124 11.8599 244.06 11.7639 243.9 11.6159C243.694 11.4213 243.433 11.2955 243.152 11.2559C242.878 11.2146 242.599 11.2608 242.352 11.3879C242.168 11.4879 242.092 11.5999 242.12 11.6279Z" fill="#263238"/>
	<path d="M239.6 15.268C239.333 15.1405 239.051 15.0452 238.76 14.984C238.628 14.948 238.504 14.904 238.496 14.808C238.501 14.6622 238.553 14.5218 238.644 14.408C238.824 14.1 239.008 13.776 239.204 13.436C239.707 12.6184 240.145 11.7624 240.512 10.876C239.942 11.6507 239.437 12.4708 239 13.328L238.46 14.304C238.35 14.4554 238.296 14.6409 238.308 14.828C238.321 14.8782 238.344 14.9249 238.378 14.9644C238.411 15.004 238.453 15.0353 238.5 15.056C238.572 15.0887 238.647 15.1115 238.724 15.124C239.008 15.2117 239.303 15.2602 239.6 15.268Z" fill="#263238"/>
	<path d="M238.284 21.488C240.088 21.7908 241.941 21.5859 243.636 20.896C243.636 20.896 242.036 23.372 238.228 22.432L238.284 21.488Z" fill="#AA6550"/>
	<path d="M239.628 16.5799C239.749 16.4696 239.896 16.3913 240.056 16.3521C240.215 16.313 240.381 16.3143 240.54 16.3559C240.654 16.3821 240.762 16.431 240.857 16.4998C240.952 16.5685 241.032 16.6556 241.092 16.756C241.15 16.8545 241.176 16.9684 241.166 17.0822C241.157 17.1959 241.113 17.3041 241.04 17.392C240.94 17.475 240.818 17.5263 240.689 17.5392C240.56 17.552 240.43 17.5258 240.316 17.464C240.08 17.3362 239.87 17.1636 239.7 16.956C239.647 16.9038 239.604 16.8429 239.572 16.776C239.558 16.7437 239.553 16.708 239.559 16.6731C239.564 16.6383 239.58 16.6059 239.604 16.5799" fill="#AA6550"/>
	<path d="M241.104 15.8718C241.02 15.8718 240.932 16.4318 240.376 16.7638C239.82 17.0958 239.216 16.9438 239.2 17.0238C239.184 17.1038 239.32 17.1558 239.6 17.1998C239.936 17.2567 240.282 17.1929 240.576 17.0198C240.857 16.8506 241.061 16.5799 241.148 16.2638C241.2 16.0278 241.144 15.8758 241.104 15.8718Z" fill="#263238"/>
	<path d="M242.02 10.6641C242.052 10.8161 242.592 10.8281 243.22 10.9961C243.848 11.1641 244.312 11.3961 244.42 11.2961C244.528 11.1961 244.4 11.0921 244.216 10.9201C243.975 10.7048 243.686 10.551 243.372 10.4721C243.06 10.3836 242.73 10.3726 242.412 10.4401C242.14 10.4961 242 10.5921 242.02 10.6641Z" fill="#263238"/>
	<path d="M237.348 9.23603C237.424 9.36803 237.808 9.30003 238.248 9.36003C238.688 9.42003 239.048 9.56404 239.152 9.45204C239.256 9.34004 239.152 9.26804 239.012 9.12804C238.818 8.95348 238.572 8.84557 238.312 8.82003C238.054 8.78493 237.791 8.83107 237.56 8.95203C237.388 9.05203 237.316 9.17203 237.348 9.23603Z" fill="#263238"/>
	<path d="M236.488 9.00796C237.656 5.83196 238.372 7.26796 239.64 5.85996C240.908 7.59996 244.084 9.85997 246.132 10.528C246.348 10.576 246.55 10.6747 246.72 10.816C247.008 11.104 246.96 11.576 246.9 11.98C246.688 13.1122 246.609 14.2653 246.664 15.416C246.721 16.5816 247.14 17.7004 247.864 18.616C249.536 16.136 250.132 13.048 250.004 10.06C249.952 8.85996 249.748 7.53996 248.916 6.64396C248.28 6.03818 247.503 5.59974 246.656 5.36796C244.612 4.66396 242.408 4.23597 240.292 4.68397C238.176 5.13197 236.488 5.81597 235.892 7.88397" fill="#263238"/>
	<path d="M250.42 7.19977C250.26 6.95373 250.018 6.77273 249.736 6.68917C249.455 6.60562 249.153 6.62498 248.884 6.74377C248.368 6.89177 247.824 7.29177 247.124 7.54377C246.371 7.82796 245.573 7.97691 244.768 7.98377C243.962 7.99753 243.161 7.86191 242.404 7.58377C241.788 7.35922 241.207 7.04665 240.68 6.65577C240.327 6.39372 240.002 6.0947 239.712 5.76377C239.597 5.64559 239.5 5.51075 239.424 5.36377C239.843 5.78358 240.292 6.17134 240.768 6.52377C241.672 7.15738 242.716 7.5638 243.811 7.70863C244.905 7.85345 246.018 7.73242 247.056 7.35577C247.736 7.12377 248.284 6.73977 248.844 6.59577C249.061 6.52611 249.29 6.50755 249.515 6.54156C249.74 6.57557 249.954 6.66121 250.14 6.79177C250.24 6.86577 250.323 6.9615 250.38 7.07177C250.405 7.1102 250.418 7.15434 250.42 7.19977Z" fill="#455A64"/>
	<path d="M254.244 0.755859C254.244 0.755859 254.364 0.803858 254.508 0.979858C254.706 1.23479 254.824 1.54222 254.848 1.86386C254.877 2.337 254.784 2.80964 254.576 3.23586C254.348 3.76041 254.043 4.24835 253.672 4.68386C253.299 5.12251 252.84 5.48047 252.324 5.73585C251.898 5.93846 251.435 6.05146 250.964 6.06785C250.648 6.08047 250.333 6.03714 250.032 5.93986C249.92 5.91328 249.815 5.86279 249.724 5.79185C250.126 5.89359 250.541 5.9367 250.956 5.91986C251.404 5.88476 251.84 5.76245 252.24 5.55985C252.727 5.309 253.161 4.96521 253.516 4.54785C254.26 3.65586 254.744 2.63186 254.716 1.87186C254.702 1.57303 254.613 1.2826 254.456 1.02786C254.328 0.847862 254.232 0.771859 254.244 0.755859Z" fill="#455A64"/>
	<path d="M256.312 2.17603C256.351 2.29469 256.37 2.41909 256.368 2.54403C256.38 2.88277 256.348 3.22164 256.272 3.55203C256.155 4.10501 255.929 4.62919 255.608 5.09405C255.286 5.55891 254.876 5.95514 254.399 6.25967C253.923 6.56419 253.391 6.77092 252.834 6.86782C252.278 6.96471 251.707 6.94982 251.156 6.82403C250.825 6.7527 250.505 6.6384 250.204 6.48403C249.992 6.37203 249.884 6.29203 249.892 6.28003C250.31 6.44998 250.743 6.5838 251.184 6.68003C252.257 6.88739 253.368 6.67519 254.289 6.08721C255.209 5.49923 255.869 4.58032 256.132 3.52003C256.232 3.07821 256.292 2.62845 256.312 2.17603Z" fill="#455A64"/>
	<path d="M189.372 91.7438L189.408 91.7158L189.372 91.7438Z" fill="#263238"/>
	<path d="M273.02 67.2238L251.148 58.9918L250.708 54.9918C250.687 54.7917 250.595 54.606 250.448 54.4686C250.301 54.3312 250.109 54.2514 249.908 54.2438L232.848 53.6638H232.68V53.6838C231.592 53.8918 227.108 55.8998 223.912 59.9198C221.7 62.6998 207.068 79.6118 205.816 79.9678C204.564 80.3238 189.168 91.9478 189.372 91.7318L178.1 101.52L182.756 108.928L213.868 87.4838L238.548 70.8998C241.288 72.2911 244.183 73.3531 247.172 74.0638C250.312 74.8118 264.18 76.5558 264.18 76.5558L265.408 106.812L275.86 108.108L277.968 74.5478C278.066 72.9524 277.634 71.3694 276.739 70.0449C275.844 68.7204 274.537 67.7287 273.02 67.2238Z" fill="#263238"/>
	<path d="M250.708 54.992C250.476 55.0509 250.239 55.0911 250 55.112C249.544 55.176 248.884 55.252 248.06 55.324C245.92 55.5048 243.77 55.5409 241.624 55.432C239.477 55.3207 237.343 55.029 235.244 54.56C234.444 54.372 233.796 54.2 233.356 54.064C233.124 54.0028 232.897 53.9253 232.676 53.832C232.913 53.865 233.147 53.9158 233.376 53.984C233.82 54.1 234.472 54.248 235.276 54.412C237.374 54.8346 239.5 55.102 241.636 55.212C243.769 55.3179 245.906 55.3019 248.036 55.164C248.836 55.112 249.52 55.06 249.976 55.02C250.219 54.9901 250.464 54.9808 250.708 54.992Z" fill="#455A64"/>
	<path d="M245.468 69.8719C245.468 69.9079 245 69.7999 244.268 69.7199C242.305 69.5103 240.321 69.8264 238.52 70.6359C237.832 70.944 237.428 71.1919 237.412 71.1599C237.396 71.1279 237.496 71.076 237.672 70.956C237.929 70.787 238.196 70.6347 238.472 70.5C240.275 69.6003 242.311 69.2764 244.304 69.5719C244.603 69.6148 244.898 69.6776 245.188 69.7599C245.286 69.7846 245.38 69.8223 245.468 69.8719Z" fill="#455A64"/>
	<path d="M264.612 80.0719C264.325 79.0201 264.103 77.9513 263.948 76.8719C263.727 75.816 263.572 74.7472 263.484 73.6719C263.774 74.7166 263.998 75.7788 264.152 76.8519C264.377 77.9138 264.531 78.9895 264.612 80.0719Z" fill="#455A64"/>
	<path d="M210.672 87.8558C210.465 87.9317 210.242 87.951 210.024 87.9118C209.498 87.8523 208.996 87.6565 208.568 87.3436C208.14 87.0308 207.801 86.6117 207.584 86.1279C207.479 85.9344 207.43 85.7157 207.44 85.4958C207.545 85.6788 207.637 85.8686 207.716 86.0639C207.956 86.5004 208.288 86.8798 208.688 87.1758C209.092 87.4691 209.555 87.6699 210.044 87.7638C210.255 87.7828 210.465 87.8136 210.672 87.8558Z" fill="#455A64"/>
</svg>
