<svg width="129" height="45" viewBox="0 0 129 45" fill="none" xmlns="http://www.w3.org/2000/svg">
	<path d="M124.875 3.47732e-06H77.605C77.1314 -0.000654759 76.6623 0.0921435 76.2247 0.273079C75.787 0.454014 75.3893 0.71953 75.0544 1.05442C74.7195 1.3893 74.454 1.78698 74.2731 2.22465C74.0921 2.66233 73.9993 3.1314 74 3.605V27.87C74 28.3434 74.0932 28.8122 74.2744 29.2496C74.4556 29.687 74.7211 30.0844 75.0559 30.4191C75.3906 30.7539 75.7881 31.0194 76.2254 31.2006C76.6628 31.3818 77.1316 31.475 77.605 31.475H110.98L118.215 35.165V31.47H124.885C125.839 31.4674 126.752 31.0871 127.426 30.4124C128.1 29.7377 128.479 28.8235 128.48 27.87V3.605C128.48 2.6489 128.1 1.73195 127.424 1.05588C126.748 0.379816 125.831 3.47732e-06 124.875 3.47732e-06Z" fill="#00B7FB"/>
	<path d="M122.175 9.17492H85.8502C85.3025 9.17492 84.7772 8.95736 84.39 8.5701C84.0027 8.18283 83.7852 7.65759 83.7852 7.10992C83.7852 6.56225 84.0027 6.03701 84.39 5.64975C84.7772 5.26248 85.3025 5.04492 85.8502 5.04492H122.175C122.723 5.04492 123.248 5.26248 123.635 5.64975C124.023 6.03701 124.24 6.56225 124.24 7.10992C124.24 7.65759 124.023 8.18283 123.635 8.5701C123.248 8.95736 122.723 9.17492 122.175 9.17492ZM85.8502 5.52992C85.4458 5.55266 85.0655 5.72929 84.7873 6.02357C84.5091 6.31786 84.3541 6.70746 84.3541 7.11242C84.3541 7.51739 84.5091 7.90699 84.7873 8.20127C85.0655 8.49555 85.4458 8.67218 85.8502 8.69492H122.175C122.579 8.67218 122.96 8.49555 123.238 8.20127C123.516 7.90699 123.671 7.51739 123.671 7.11242C123.671 6.70746 123.516 6.31786 123.238 6.02357C122.96 5.72929 122.579 5.55266 122.175 5.52992H85.8502Z" fill="white"/>
	<path d="M122.175 16.1849H97.1749C96.6546 16.159 96.1641 15.9341 95.805 15.5567C95.4459 15.1794 95.2456 14.6783 95.2456 14.1574C95.2456 13.6364 95.4459 13.1354 95.805 12.758C96.1641 12.3806 96.6546 12.1557 97.1749 12.1299H122.175C122.695 12.1557 123.186 12.3806 123.545 12.758C123.904 13.1354 124.104 13.6364 124.104 14.1574C124.104 14.6783 123.904 15.1794 123.545 15.5567C123.186 15.9341 122.695 16.159 122.175 16.1849ZM97.1749 12.5399C96.9549 12.5276 96.7348 12.5604 96.5279 12.6362C96.321 12.7119 96.1317 12.8291 95.9717 12.9805C95.8116 13.1319 95.6841 13.3143 95.597 13.5167C95.5099 13.7191 95.4649 13.9371 95.4649 14.1574C95.4649 14.3777 95.5099 14.5957 95.597 14.7981C95.6841 15.0004 95.8116 15.1829 95.9717 15.3343C96.1317 15.4857 96.321 15.6028 96.5279 15.6786C96.7348 15.7543 96.9549 15.7871 97.1749 15.7749H122.175C122.395 15.7871 122.615 15.7543 122.822 15.6786C123.029 15.6028 123.218 15.4857 123.378 15.3343C123.538 15.1829 123.666 15.0004 123.753 14.7981C123.84 14.5957 123.885 14.3777 123.885 14.1574C123.885 13.9371 123.84 13.7191 123.753 13.5167C123.666 13.3143 123.538 13.1319 123.378 12.9805C123.218 12.8291 123.029 12.7119 122.822 12.6362C122.615 12.5604 122.395 12.5276 122.175 12.5399H97.1749Z" fill="white"/>
	<path d="M122.175 23.1851H91.48C90.9545 23.1591 90.4591 22.9321 90.0963 22.5509C89.7336 22.1698 89.5312 21.6638 89.5312 21.1376C89.5312 20.6114 89.7336 20.1054 90.0963 19.7243C90.4591 19.3431 90.9545 19.1161 91.48 19.0901H122.185C122.711 19.1161 123.206 19.3431 123.569 19.7243C123.932 20.1054 124.134 20.6114 124.134 21.1376C124.134 21.6638 123.932 22.1698 123.569 22.5509C123.206 22.9321 122.711 23.1591 122.185 23.1851H122.175ZM91.48 19.5401C91.2627 19.5279 91.0452 19.5602 90.8408 19.635C90.6365 19.7098 90.4495 19.8255 90.2913 19.975C90.1332 20.1246 90.0072 20.3048 89.9211 20.5047C89.835 20.7046 89.7906 20.9199 89.7906 21.1376C89.7906 21.3552 89.835 21.5706 89.9211 21.7705C90.0072 21.9704 90.1332 22.1506 90.2913 22.3001C90.4495 22.4497 90.6365 22.5654 90.8408 22.6402C91.0452 22.7149 91.2627 22.7472 91.48 22.7351H122.185C122.402 22.7472 122.62 22.7149 122.824 22.6402C123.029 22.5654 123.216 22.4497 123.374 22.3001C123.532 22.1506 123.658 21.9704 123.744 21.7705C123.83 21.5706 123.874 21.3552 123.874 21.1376C123.874 20.9199 123.83 20.7046 123.744 20.5047C123.658 20.3048 123.532 20.1246 123.374 19.975C123.216 19.8255 123.029 19.7098 122.824 19.635C122.62 19.5602 122.402 19.5279 122.185 19.5401H91.48Z" fill="white"/>
	<path d="M57.795 20H3.605C2.64889 20 1.73195 20.3798 1.05588 21.0559C0.379809 21.732 0 22.6489 0 23.605V37.52C0 37.9934 0.0932458 38.4622 0.274414 38.8996C0.455582 39.337 0.721123 39.7344 1.05588 40.0691C1.39063 40.4039 1.78804 40.6694 2.22542 40.8506C2.6628 41.0318 3.13158 41.125 3.605 41.125H10.275V44.8L17.505 41.11H57.795C58.7511 41.11 59.668 40.7302 60.3441 40.0541C61.0202 39.3781 61.4 38.4611 61.4 37.505V23.605C61.4 22.6489 61.0202 21.732 60.3441 21.0559C59.668 20.3798 58.7511 20 57.795 20Z" fill="#5F60A9"/>
	<path opacity="0.7" d="M57.795 20H3.605C2.64889 20 1.73195 20.3798 1.05588 21.0559C0.379809 21.732 0 22.6489 0 23.605V37.52C0 37.9934 0.0932458 38.4622 0.274414 38.8996C0.455582 39.337 0.721123 39.7344 1.05588 40.0691C1.39063 40.4039 1.78804 40.6694 2.22542 40.8506C2.6628 41.0318 3.13158 41.125 3.605 41.125H10.275V44.8L17.505 41.11H57.795C58.7511 41.11 59.668 40.7302 60.3441 40.0541C61.0202 39.3781 61.4 38.4611 61.4 37.505V23.605C61.4 22.6489 61.0202 21.732 60.3441 21.0559C59.668 20.3798 58.7511 20 57.795 20Z" fill="white"/>
	<path d="M42.7054 29.1051H6.38042C5.83274 29.1051 5.3075 28.8875 4.92024 28.5003C4.53298 28.113 4.31543 27.5878 4.31543 27.0401C4.31543 26.4924 4.53298 25.9672 4.92024 25.5799C5.3075 25.1927 5.83274 24.9751 6.38042 24.9751H42.7054C43.2531 24.9751 43.7783 25.1927 44.1656 25.5799C44.5529 25.9672 44.7704 26.4924 44.7704 27.0401C44.7704 27.5878 44.5529 28.113 44.1656 28.5003C43.7783 28.8875 43.2531 29.1051 42.7054 29.1051ZM6.38042 25.4601C5.96137 25.4601 5.55951 25.6266 5.2632 25.9229C4.96689 26.2192 4.80043 26.6211 4.80043 27.0401C4.80043 27.4591 4.96689 27.861 5.2632 28.1573C5.55951 28.4536 5.96137 28.6201 6.38042 28.6201H42.7054C43.1245 28.6201 43.5263 28.4536 43.8226 28.1573C44.119 27.861 44.2854 27.4591 44.2854 27.0401C44.2854 26.6211 44.119 26.2192 43.8226 25.9229C43.5263 25.6266 43.1245 25.4601 42.7054 25.4601H6.38042Z" fill="white"/>
	<path d="M31.4 36.1101H6.39999C5.86293 36.1101 5.34787 35.8967 4.96811 35.5169C4.58835 35.1372 4.375 34.6221 4.375 34.0851C4.375 33.548 4.58835 33.0329 4.96811 32.6532C5.34787 32.2734 5.86293 32.0601 6.39999 32.0601H31.4C31.9371 32.0601 32.4521 32.2734 32.8319 32.6532C33.2117 33.0329 33.425 33.548 33.425 34.0851C33.425 34.6221 33.2117 35.1372 32.8319 35.5169C32.4521 35.8967 31.9371 36.1101 31.4 36.1101ZM6.39999 32.4651C5.97034 32.4651 5.5583 32.6357 5.25449 32.9395C4.95068 33.2434 4.78 33.6554 4.78 34.0851C4.78 34.5147 4.95068 34.9268 5.25449 35.2306C5.5583 35.5344 5.97034 35.7051 6.39999 35.7051H31.4C31.8296 35.7051 32.2417 35.5344 32.5455 35.2306C32.8493 34.9268 33.02 34.5147 33.02 34.0851C33.02 33.6554 32.8493 33.2434 32.5455 32.9395C32.2417 32.6357 31.8296 32.4651 31.4 32.4651H6.39999Z" fill="white"/>
</svg>
