<svg width="70" height="48" viewBox="0 0 70 48" fill="none" xmlns="http://www.w3.org/2000/svg">
	<path d="M26.9901 0L2.43644 7.36824C2.00299 7.49758 1.60005 7.70864 1.25067 7.98937C0.901288 8.27009 0.612323 8.61497 0.400303 9.00427C0.188284 9.39356 0.0573697 9.81964 0.0150536 10.2581C-0.0272625 10.6966 0.0198487 11.1389 0.153691 11.5597L11.5 47H12H13C13 47 13.5485 46.9591 14 47H15.5H31.5L46.9158 38.4211C47.349 38.2915 47.7516 38.0802 48.1007 37.7993C48.4497 37.5185 48.7384 37.1736 48.9501 36.7843C49.1618 36.395 49.2925 35.9691 49.3346 35.5307C49.3767 35.0924 49.3295 34.6503 49.1956 34.2297L40.2908 6.8277L26.9901 0Z" fill="white"/>
	<g opacity="0.28">
		<path opacity="0.28" d="M18.2161 10.5306L7.41252 13.771C7.03047 13.8842 6.61787 13.8462 6.26449 13.6654C5.91111 13.4846 5.64555 13.1756 5.5256 12.8055C5.4092 12.4341 5.44869 12.033 5.63545 11.6897C5.8222 11.3464 6.1411 11.0888 6.52263 10.9729L17.3262 7.73243C17.7083 7.61767 18.1216 7.65489 18.4754 7.83592C18.8292 8.01695 19.0946 8.32699 19.2132 8.69791C19.3296 9.06936 19.2901 9.47043 19.1033 9.81371C18.9166 10.157 18.5977 10.4147 18.2161 10.5306Z" fill="#001A75"/>
	</g>
	<g opacity="0.28">
		<path opacity="0.28" d="M27.0317 13.9676L9.17451 19.324C8.79326 19.4352 8.38224 19.3959 8.03065 19.2146C7.67905 19.0333 7.41526 18.7246 7.29652 18.3556C7.17927 17.9849 7.21805 17.5842 7.40437 17.2413C7.59068 16.8983 7.90935 16.641 8.29057 16.5258L26.1478 11.1695C26.5299 11.0555 26.9428 11.0931 27.2964 11.274C27.65 11.4549 27.9155 11.7645 28.0347 12.1349C28.1501 12.5071 28.1094 12.9085 27.9215 13.2517C27.7337 13.595 27.4139 13.8522 27.0317 13.9676Z" fill="#001A75"/>
	</g>
	<g opacity="0.28">
		<path opacity="0.28" d="M37.0021 17.0576L10.9425 24.8624C10.5609 24.9762 10.1483 24.9386 9.7952 24.7576C9.44208 24.5766 9.17721 24.2671 9.05858 23.8969C8.94205 23.5258 8.98112 23.1251 9.16729 22.7819C9.35346 22.4386 9.67165 22.1807 10.0526 22.0642L36.1123 14.2595C36.4939 14.1464 36.9061 14.1844 37.259 14.3653C37.6119 14.5461 37.8769 14.8551 37.9962 15.2249C38.1135 15.596 38.0748 15.9971 37.8886 16.3405C37.7023 16.6839 37.3836 16.9418 37.0021 17.0576Z" fill="#001A75"/>
	</g>
	<g opacity="0.28">
		<path opacity="0.28" d="M38.7671 22.608L23.6182 27.1549C23.2362 27.2679 22.8236 27.2295 22.4707 27.048C22.1177 26.8666 21.8529 26.5569 21.7343 26.1866C21.6178 25.8159 21.657 25.4156 21.8432 25.0728C22.0294 24.7301 22.3476 24.4727 22.7283 24.3568L37.8772 19.8099C38.2596 19.6976 38.6722 19.7363 39.0254 19.9176C39.3787 20.0989 39.6441 20.4081 39.7641 20.7782C39.8804 21.1493 39.8408 21.55 39.654 21.8928C39.4672 22.2356 39.1484 22.4927 38.7671 22.608Z" fill="#001A75"/>
	</g>
	<g opacity="0.28">
		<path opacity="0.28" d="M16.6715 29.2388L12.7101 30.4269C12.3281 30.5409 11.9151 30.5033 11.5615 30.3223C11.2079 30.1414 10.9425 29.8319 10.8232 29.4614C10.706 29.09 10.7451 28.6886 10.932 28.3451C11.1188 28.0016 11.4383 27.744 11.8202 27.6288L15.7816 26.4407C16.1636 26.3275 16.5762 26.3655 16.9296 26.5463C17.283 26.7271 17.5485 27.0362 17.6685 27.4062C17.7841 27.7776 17.7442 28.1783 17.5576 28.5214C17.3709 28.8645 17.0525 29.1223 16.6715 29.2388Z" fill="#001A75"/>
	</g>
	<g opacity="0.28">
		<path opacity="0.28" d="M40.535 28.1606L14.4754 35.9798C14.0933 36.0928 13.6808 36.0544 13.3278 35.8729C12.9749 35.6915 12.7101 35.3818 12.5914 35.0114C12.4742 34.6408 12.513 34.2401 12.6993 33.8971C12.8856 33.5542 13.2043 33.2969 13.5855 33.1817L39.6451 25.3625C40.0268 25.2494 40.439 25.2874 40.7919 25.4683C41.1448 25.6491 41.4098 25.9582 41.5291 26.328C41.6464 26.699 41.6077 27.1001 41.4214 27.4435C41.2352 27.787 40.9165 28.0448 40.535 28.1606Z" fill="#001A75"/>
	</g>
	<g opacity="0.28">
		<path opacity="0.28" d="M32.2429 36.7286L16.2399 41.53C15.8582 41.6431 15.446 41.605 15.0931 41.4242C14.7402 41.2433 14.4752 40.9343 14.3559 40.5645C14.2394 40.1934 14.2785 39.7927 14.4647 39.4495C14.6508 39.1062 14.969 38.8483 15.35 38.7318L31.3531 33.9305C31.7355 33.8174 32.1484 33.8558 32.5019 34.0371C32.8553 34.2185 33.1206 34.5283 33.24 34.8988C33.3571 35.2699 33.3179 35.6709 33.131 36.0139C32.9441 36.357 32.6247 36.614 32.2429 36.7286Z" fill="#001A75"/>
	</g>
	<g opacity="0.28">
		<path opacity="0.28" d="M42.2995 33.7138L38.0286 34.9944C37.6462 35.1075 37.2333 35.0691 36.8798 34.8877C36.5264 34.7063 36.2611 34.3966 36.1417 34.026C36.0254 33.655 36.065 33.2543 36.2518 32.9115C36.4386 32.5687 36.7574 32.3115 37.1388 32.1963L41.4096 30.9157C41.7913 30.8018 42.2038 30.8395 42.5569 31.0204C42.91 31.2014 43.1749 31.5109 43.2936 31.8812C43.4109 32.2522 43.3722 32.6533 43.1859 32.9968C42.9996 33.3402 42.6809 33.598 42.2995 33.7138Z" fill="#001A75"/>
	</g>
	<g opacity="0.28">
		<path opacity="0.28" d="M44.0645 39.2694L18.0108 47.0742C17.6284 47.188 17.2151 47.15 16.8614 46.9685C16.5078 46.787 16.2426 46.4768 16.1239 46.1058C16.0068 45.7347 16.046 45.3337 16.2329 44.9907C16.4198 44.6477 16.7392 44.3906 17.1209 44.276L43.1776 36.4568C43.56 36.3446 43.9726 36.3833 44.3258 36.5646C44.6791 36.7459 44.9445 37.0551 45.0645 37.4252C45.1243 37.6101 45.1458 37.8046 45.1278 37.9975C45.1099 38.1905 45.0528 38.3781 44.9598 38.5495C44.8668 38.721 44.7399 38.8728 44.5862 38.9964C44.4326 39.1199 44.2552 39.2127 44.0645 39.2694Z" fill="#001A75"/>
	</g>
	<path opacity="0.2" d="M26.9902 0L29.1123 6.6745C29.3832 7.52397 29.9901 8.23428 30.7998 8.64945C31.6095 9.06461 32.5558 9.15067 33.4307 8.88873L40.2998 6.8277L26.9902 0Z" fill="#001A75"/>
	<path d="M55.2343 3.20312L29.5855 4.74095C29.1323 4.7671 28.6889 4.8798 28.2807 5.07257C27.8725 5.26535 27.5074 5.53443 27.2063 5.86441C26.9053 6.19439 26.6742 6.57879 26.5263 6.99561C26.3784 7.41243 26.3166 7.85349 26.3444 8.29354L29.6128 46.9581L30.0002 47H30.5002H31.5002C31.5002 47 32.5469 47.0278 33.0002 47H66.0002C66.4529 46.9735 67.0002 47 67.0002 47H68.0002H68.5002H69.5002L66.5231 12.8868L55.2343 3.20312Z" fill="white"/>
	<path d="M44.1541 11.4269L32.8654 12.0975C32.4668 12.1197 32.0754 11.9882 31.7761 11.7317C31.4768 11.4751 31.2939 11.1142 31.2671 10.7273C31.2443 10.3398 31.3801 9.95921 31.6449 9.66846C31.9096 9.37771 32.282 9.20037 32.6808 9.17508L43.9696 8.49867C44.368 8.47572 44.7595 8.60701 45.0585 8.8638C45.3575 9.12059 45.5395 9.48197 45.5648 9.86883C45.5901 10.257 45.4558 10.6392 45.1913 10.9313C44.9268 11.2234 44.5538 11.4016 44.1541 11.4269Z" fill="#EBEDF4"/>
	<path d="M51.886 16.786L33.2342 17.9018C32.8353 17.9255 32.4429 17.7946 32.1433 17.5377C31.8437 17.2809 31.6612 16.919 31.6359 16.5316C31.6123 16.1439 31.7478 15.7629 32.0128 15.472C32.2777 15.181 32.6505 15.0039 33.0496 14.9794L51.6985 13.8636C52.0974 13.8398 52.4897 13.9708 52.7894 14.2276C53.089 14.4845 53.2715 14.8464 53.2967 15.2337C53.3204 15.621 53.1853 16.0016 52.921 16.2924C52.6567 16.5833 52.2846 16.7607 51.886 16.786Z" fill="#EBEDF4"/>
	<path d="M60.8233 22.0732L33.6029 23.7035C33.2029 23.7273 32.8095 23.5962 32.5088 23.3388C32.2082 23.0815 32.0248 22.7189 31.9987 22.3305C31.9751 21.9435 32.1103 21.5632 32.3747 21.2729C32.6391 20.9825 33.0112 20.8057 33.4095 20.7811L60.6328 19.1479C61.0315 19.1258 61.423 19.2577 61.7219 19.515C62.0208 19.7722 62.2027 20.1339 62.228 20.521C62.2517 20.9073 62.1174 21.2871 61.8544 21.5777C61.5913 21.8684 61.2208 22.0465 60.8233 22.0732Z" fill="#EBEDF4"/>
	<path d="M61.1925 27.8717L45.3681 28.8199C44.9694 28.8428 44.5775 28.7116 44.2781 28.4549C43.9786 28.1982 43.796 27.8368 43.7699 27.4497C43.7455 27.0622 43.8803 26.6812 44.1448 26.3902C44.4092 26.0992 44.7818 25.9219 45.1806 25.8974L61.005 24.9493C61.4039 24.9255 61.7963 25.0565 62.0959 25.3133C62.3955 25.5702 62.578 25.9321 62.6032 26.3195C62.6269 26.7067 62.4918 27.0873 62.2275 27.3782C61.9632 27.669 61.5911 27.8464 61.1925 27.8717Z" fill="#EBEDF4"/>
	<path d="M38.1089 29.2535L33.969 29.5021C33.5706 29.525 33.179 29.3937 32.8801 29.1369C32.5811 28.8801 32.399 28.5188 32.3737 28.1319C32.3501 27.7446 32.4852 27.364 32.7495 27.0732C33.0138 26.7823 33.3859 26.6049 33.7845 26.5796L37.9244 26.331C38.3234 26.3088 38.7152 26.4407 39.0146 26.6979C39.314 26.9551 39.4965 27.3167 39.5226 27.7041C39.5454 28.0913 39.4095 28.4716 39.1447 28.7619C38.8798 29.0522 38.5074 29.2289 38.1089 29.2535Z" fill="#EBEDF4"/>
	<path d="M61.5613 33.6701L34.338 35.3004C33.9393 35.3234 33.5474 35.1922 33.248 34.9355C32.9485 34.6788 32.7658 34.3174 32.7398 33.9303C32.7169 33.5427 32.8527 33.1621 33.1175 32.8714C33.3823 32.5806 33.7547 32.4033 34.1535 32.378L61.3739 30.7477C61.7731 30.7247 62.1654 30.8563 62.4649 31.1137C62.7644 31.371 62.9468 31.7331 62.9721 32.1207C62.9957 32.5077 62.8605 32.888 62.5961 33.1784C62.3317 33.4687 61.9597 33.6456 61.5613 33.6701Z" fill="#EBEDF4"/>
	<path d="M51.4245 40.0992L34.7071 41.1022C34.3081 41.1244 33.9163 40.9925 33.6169 40.7353C33.3175 40.4782 33.135 40.1165 33.1089 39.7291C33.0861 39.3419 33.222 38.9616 33.4868 38.6713C33.7517 38.3811 34.1241 38.2043 34.5226 38.1798L51.24 37.1767C51.6387 37.1546 52.0302 37.2865 52.3291 37.5438C52.628 37.801 52.8099 38.1627 52.8352 38.5498C52.8596 38.9369 52.7247 39.3176 52.4602 39.6082C52.1956 39.8987 51.8231 40.0753 51.4245 40.0992Z" fill="#EBEDF4"/>
	<path d="M61.9276 39.4718L57.4633 39.7377C57.0649 39.7607 56.6733 39.6294 56.3744 39.3726C56.0754 39.1158 55.8933 38.7544 55.8681 38.3676C55.8436 37.9801 55.9784 37.5991 56.2429 37.3081C56.5074 37.0171 56.8799 36.8399 57.2788 36.8153L61.7431 36.5494C62.142 36.5256 62.5343 36.6566 62.834 36.9134C63.1336 37.1703 63.3161 37.5321 63.3413 37.9195C63.3642 38.3071 63.2284 38.6877 62.9636 38.9784C62.6988 39.2692 62.3264 39.4465 61.9276 39.4718Z" fill="#EBEDF4"/>
	<path d="M62.2968 45.2702L35.0765 46.9006C34.6777 46.9235 34.2859 46.7923 33.9864 46.5356C33.687 46.2789 33.5043 45.9175 33.4782 45.5304C33.4546 45.1431 33.5897 44.7625 33.854 44.4717C34.1183 44.1808 34.4904 44.0034 34.889 43.9781L62.1123 42.3478C62.5107 42.3248 62.9023 42.4561 63.2013 42.7129C63.5002 42.9697 63.6823 43.3311 63.7076 43.718C63.732 44.1054 63.5972 44.4864 63.3327 44.7775C63.0682 45.0685 62.6957 45.2457 62.2968 45.2702Z" fill="#EBEDF4"/>
	<path opacity="0.22" d="M55.2344 3.20312L55.6778 10.1754C55.7055 10.615 55.8221 11.045 56.0209 11.4408C56.2197 11.8366 56.4969 12.1906 56.8365 12.4823C57.1762 12.7741 57.5717 12.9981 58.0005 13.1414C58.4293 13.2847 58.883 13.3445 59.3356 13.3175L66.5231 12.8868L55.2344 3.20312Z" fill="#001A75"/>
</svg>
